<?xml version="1.0" encoding="UTF-8" standalone="no"?>
<!DOCTYPE svg PUBLIC "-//W3C//DTD SVG 1.1//EN" "http://www.w3.org/Graphics/SVG/1.1/DTD/svg11.dtd">
<svg width="100%" height="100%" viewBox="0 0 450 135" version="1.1" xmlns="http://www.w3.org/2000/svg" xmlns:xlink="http://www.w3.org/1999/xlink" xml:space="preserve" style="fill-rule:evenodd;clip-rule:evenodd;stroke-linejoin:round;stroke-miterlimit:1.41421;">
    <path d="M262.02,27.84L241.81,35.92L241.81,19.76M208.13,35.92L187.92,27.84L224.97,13.02L224.97,29.19" style="fill:rgb(0,159,227);fill-rule:nonzero;"/>
    <path d="M208.13,54.79L184.55,45.36L184.55,29.19L208.13,38.62M265.39,45.36L265.39,29.19L224.97,45.36L224.97,61.52" style="fill:rgb(198,198,198);fill-rule:nonzero;"/>
    <path d="M97.76,86.96L97.76,101.66L95.32,101.66L95.32,95.4L88.74,95.4L88.74,101.67L86.29,101.67L86.29,86.97L88.74,86.97L88.74,93.43L95.32,93.43L95.32,86.97L97.76,86.97L97.76,86.96ZM112.98,92.99L112.98,95.63C112.98,99.25 110.55,101.87 106.9,101.87C103.32,101.87 100.95,99.24 100.95,95.63L100.95,92.99C100.95,89.4 103.3,86.75 106.89,86.75C110.54,86.75 112.98,89.4 112.98,92.99ZM110.53,95.64L110.53,92.98C110.53,90.55 109.16,88.78 106.9,88.78C104.71,88.78 103.41,90.52 103.41,92.98L103.41,95.64C103.41,98.11 104.72,99.87 106.91,99.87C109.18,99.87 110.53,98.11 110.53,95.64L110.53,95.64ZM124.62,96.9L127.07,96.9C126.78,100 124.84,101.88 121.44,101.88C117.96,101.88 115.74,99.4 115.74,95.72L115.74,92.92C115.74,89.27 118,86.75 121.44,86.75C124.91,86.75 126.76,88.56 127.08,91.79L124.62,91.79C124.37,89.74 123.5,88.72 121.43,88.72C119.38,88.72 118.17,90.45 118.17,92.9L118.17,95.72C118.17,98.21 119.36,99.92 121.43,99.92C123.47,99.92 124.37,98.93 124.62,96.9L124.62,96.9ZM141.73,86.96L141.73,101.66L139.29,101.66L139.29,95.4L132.71,95.4L132.71,101.67L130.26,101.67L130.26,86.97L132.71,86.97L132.71,93.43L139.29,93.43L139.29,86.97L141.73,86.97L141.73,86.96ZM153.67,97.89C153.67,96.64 152.93,95.94 150.59,95.33C147.23,94.44 145.46,93.17 145.46,90.83C145.46,88.42 147.57,86.75 150.72,86.75C154,86.75 156.11,88.7 156.11,91.24L153.66,91.24C153.66,89.7 152.63,88.7 150.7,88.7C148.88,88.7 147.91,89.55 147.91,90.8C147.91,91.38 148.16,91.84 148.68,92.19C149.18,92.55 150.05,92.91 151.29,93.24C154.51,94.12 156.12,95.48 156.12,97.85C156.12,100.34 154.03,101.86 150.79,101.86C147.65,101.86 145.01,100.19 145.01,97.25L147.46,97.25C147.46,99.07 148.77,99.92 150.79,99.92C152.64,99.93 153.67,99.17 153.67,97.89L153.67,97.89ZM167.57,96.9L170.02,96.9C169.73,100 167.79,101.88 164.39,101.88C160.91,101.88 158.69,99.4 158.69,95.72L158.69,92.92C158.69,89.27 160.95,86.75 164.39,86.75C167.86,86.75 169.71,88.56 170.03,91.79L167.58,91.79C167.33,89.74 166.46,88.72 164.39,88.72C162.34,88.72 161.13,90.45 161.13,92.9L161.13,95.72C161.13,98.21 162.32,99.92 164.39,99.92C166.42,99.92 167.31,98.93 167.57,96.9L167.57,96.9ZM184.67,86.96L184.67,101.66L182.23,101.66L182.23,95.4L175.65,95.4L175.65,101.67L173.2,101.67L173.2,86.97L175.65,86.97L175.65,93.43L182.23,93.43L182.23,86.97L184.67,86.97L184.67,86.96ZM197.43,86.96L199.88,86.96L199.88,96.81C199.88,100.13 197.62,101.87 194.12,101.87C190.69,101.87 188.47,100.13 188.47,96.81L188.47,86.96L190.92,86.96L190.92,96.81C190.92,98.91 192.13,99.91 194.12,99.91C196.18,99.91 197.43,98.91 197.43,96.81L197.43,86.96L197.43,86.96ZM206.09,86.96L206.09,99.7L213.12,99.7L213.12,101.66L203.64,101.66L203.64,86.96L206.09,86.96ZM224.97,93.09L224.97,95.05L218.54,95.05L218.54,99.71L226,99.71L226,101.67L216.08,101.67L216.08,86.97L225.92,86.97L225.92,88.94L218.53,88.94L218.53,93.09L224.97,93.09ZM248.38,92.99L248.38,95.63C248.38,99.25 245.95,101.87 242.3,101.87C238.72,101.87 236.35,99.24 236.35,95.63L236.35,92.99C236.35,89.4 238.7,86.75 242.29,86.75C245.94,86.75 248.38,89.4 248.38,92.99ZM245.93,95.64L245.93,92.98C245.93,90.55 244.56,88.78 242.3,88.78C240.11,88.78 238.8,90.52 238.8,92.98L238.8,95.64C238.8,98.11 240.11,99.87 242.31,99.87C244.57,99.87 245.93,98.11 245.93,95.64ZM259.6,97.89C259.6,96.64 258.86,95.94 256.52,95.33C253.16,94.44 251.39,93.17 251.39,90.83C251.39,88.42 253.5,86.75 256.65,86.75C259.93,86.75 262.04,88.7 262.04,91.24L259.58,91.24C259.58,89.7 258.55,88.7 256.62,88.7C254.8,88.7 253.83,89.55 253.83,90.8C253.83,91.38 254.08,91.84 254.6,92.19C255.1,92.55 255.97,92.91 257.21,93.24C260.43,94.12 262.04,95.48 262.04,97.85C262.04,100.34 259.95,101.86 256.71,101.86C253.57,101.86 250.93,100.19 250.93,97.25L253.39,97.25C253.39,99.07 254.7,99.92 256.72,99.92C258.57,99.93 259.6,99.17 259.6,97.89L259.6,97.89ZM276.81,86.96L276.81,101.66L274.37,101.66L267.82,90.89L267.79,90.9L267.79,101.66L265.34,101.66L265.34,86.96L267.79,86.96L274.34,97.72L274.37,97.71L274.37,86.96L276.81,86.96ZM289.85,101.66L288.65,98.15L282.99,98.15L281.78,101.66L279.29,101.66L284.69,86.96L287.02,86.96L292.35,101.66L289.85,101.66L289.85,101.66ZM285.81,89.93L283.66,96.18L287.98,96.18L285.84,89.93L285.81,89.93L285.81,89.93ZM300.4,101.66L294.82,101.66L294.82,86.96L299.75,86.96C303.05,86.96 304.9,88.25 304.9,90.97C304.9,92.31 304.11,93.39 302.78,93.91L302.78,93.94C304.51,94.31 305.45,95.7 305.45,97.45C305.45,100.26 303.64,101.66 300.4,101.66ZM297.27,88.93L297.27,93.15L300.01,93.15C301.55,93.15 302.44,92.45 302.44,91.08C302.44,89.59 301.56,88.93 299.75,88.93L297.27,88.93ZM300.64,94.98L297.27,94.98L297.27,99.7L300.4,99.7C302.1,99.7 303.01,98.89 303.01,97.44C303,95.86 302.29,94.98 300.64,94.98ZM319.34,91.26C319.34,93.07 318.46,94.37 316.86,95.09L320.19,101.47L320.19,101.66L317.49,101.66L314.55,95.74L311.34,95.74L311.34,101.66L308.89,101.66L308.89,86.96L314.19,86.96C317.53,86.96 319.34,88.47 319.34,91.26L319.34,91.26ZM311.34,88.93L311.34,93.76L314.2,93.76C316.01,93.76 316.89,92.91 316.89,91.34C316.89,89.83 316.04,88.93 314.19,88.93L311.34,88.93ZM331.77,86.96L334.22,86.96L334.22,96.81C334.22,100.13 331.96,101.87 328.46,101.87C325.03,101.87 322.81,100.13 322.81,96.81L322.81,86.96L325.26,86.96L325.26,96.81C325.26,98.91 326.47,99.91 328.46,99.91C330.52,99.91 331.77,98.91 331.77,96.81L331.77,86.96ZM327.5,83.34L327.5,85.5L325.07,85.5L325.07,83.34L327.5,83.34ZM331.99,83.34L331.99,85.5L329.54,85.5L329.54,83.34L331.99,83.34ZM346.43,96.9L348.88,96.9C348.59,100 346.65,101.88 343.25,101.88C339.77,101.88 337.55,99.4 337.55,95.72L337.55,92.92C337.55,89.27 339.81,86.75 343.25,86.75C346.72,86.75 348.57,88.56 348.89,91.79L346.44,91.79C346.18,89.74 345.32,88.72 343.25,88.72C341.2,88.72 339.99,90.45 339.99,92.9L339.99,95.72C339.99,98.21 341.18,99.92 343.25,99.92C345.28,99.92 346.18,98.93 346.43,96.9L346.43,96.9ZM360.74,101.66L356.02,95.2L354.52,96.87L354.52,101.66L352.07,101.66L352.07,86.96L354.52,86.96L354.52,93.76L360.31,86.96L363.22,86.96L357.71,93.33L363.87,101.65L360.74,101.65L360.74,101.66ZM122.23,113.13L122.94,113.13L122.94,118.98C122.94,120.9 121.72,121.89 119.83,121.89C117.97,121.89 116.76,120.9 116.76,118.98L116.76,113.13L117.47,113.13L117.47,118.98C117.47,120.48 118.4,121.29 119.82,121.29C121.27,121.29 122.23,120.48 122.23,118.98L122.23,113.13L122.23,113.13ZM132.02,113.13L132.02,121.77L131.31,121.77L126.39,114.31L126.37,114.32L126.37,121.77L125.66,121.77L125.66,113.13L126.37,113.13L131.29,120.58L131.31,120.57L131.31,113.13L132.02,113.13ZM136.12,113.13L136.12,121.77L135.41,121.77L135.41,113.13L136.12,113.13ZM139.37,113.13L141.96,120.31L142.14,120.92L142.16,120.92L142.34,120.31L144.94,113.13L145.7,113.13L142.49,121.77L141.81,121.77L138.6,113.13L139.37,113.13ZM152.53,116.98L152.53,117.58L148.37,117.58L148.37,121.16L153.13,121.16L153.13,121.76L147.66,121.76L147.66,113.12L153.1,113.12L153.1,113.72L148.37,113.72L148.37,116.97L152.53,116.97L152.53,116.98ZM161.61,115.57C161.61,116.64 160.95,117.48 159.93,117.78L162.06,121.67L162.06,121.77L161.28,121.77L159.24,117.94L156.58,117.94L156.58,121.77L155.87,121.77L155.87,113.14L158.81,113.14C160.57,113.14 161.61,114 161.61,115.57ZM156.57,113.74L156.57,117.34L158.96,117.34C160.22,117.34 160.89,116.62 160.89,115.57C160.89,114.43 160.15,113.75 158.8,113.75L156.57,113.75L156.57,113.74ZM169.43,119.65C169.43,118.68 168.84,118.17 167.06,117.71C165.13,117.23 164.18,116.56 164.18,115.25C164.18,113.91 165.36,113.02 167.09,113.02C168.9,113.02 170.07,114.12 170.07,115.6L169.36,115.6C169.36,114.42 168.51,113.62 167.08,113.62C165.67,113.62 164.87,114.3 164.87,115.23C164.87,116.11 165.47,116.64 167.27,117.09C169.16,117.57 170.12,118.3 170.12,119.65C170.12,121.06 168.9,121.9 167.12,121.9C165.36,121.9 163.89,121.04 163.89,119.32L164.6,119.32C164.6,120.69 165.73,121.3 167.13,121.3C168.53,121.29 169.43,120.65 169.43,119.65ZM173.87,113.13L173.87,121.77L173.16,121.77L173.16,113.13L173.87,113.13ZM182.87,113.13L182.87,113.73L179.94,113.73L179.94,121.76L179.23,121.76L179.23,113.73L176.3,113.73L176.3,113.13L182.87,113.13ZM184.94,113.13L187.6,117.93L190.27,113.13L191.09,113.13L187.94,118.61L187.94,121.76L187.23,121.76L187.23,118.56L184.1,113.12L184.94,113.12L184.94,113.13ZM202.95,116.75L202.95,118.15C202.95,120.37 201.63,121.89 199.57,121.89C197.55,121.89 196.24,120.38 196.24,118.15L196.24,116.75C196.24,114.53 197.54,113.01 199.56,113.01C201.62,113.01 202.95,114.54 202.95,116.75L202.95,116.75ZM202.24,118.16L202.24,116.74C202.24,114.89 201.24,113.63 199.56,113.63C197.92,113.63 196.95,114.89 196.95,116.74L196.95,118.16C196.95,120.03 197.93,121.28 199.57,121.28C201.25,121.27 202.24,120.03 202.24,118.16L202.24,118.16ZM210.38,117.12L210.38,117.73L206.18,117.73L206.18,121.78L205.47,121.78L205.47,113.14L210.98,113.14L210.98,113.74L206.18,113.74L206.18,117.12L210.38,117.12ZM222.2,121.77L221.3,119.33L217.36,119.33L216.46,121.77L215.73,121.77L219.01,113.13L219.68,113.13L222.94,121.77L222.2,121.77L222.2,121.77ZM219.35,114L217.59,118.72L221.08,118.72L219.35,114L219.35,114ZM227.87,118.18L225.6,118.18L225.6,121.77L224.89,121.77L224.89,113.13L227.86,113.13C229.71,113.13 230.71,114.11 230.71,115.65C230.72,117.22 229.72,118.18 227.87,118.18L227.87,118.18ZM225.6,113.74L225.6,117.58L227.87,117.58C229.32,117.58 230.01,116.79 230.01,115.67C230.01,114.53 229.32,113.74 227.87,113.74L225.6,113.74ZM235.75,118.18L233.48,118.18L233.48,121.77L232.77,121.77L232.77,113.13L235.74,113.13C237.59,113.13 238.59,114.11 238.59,115.65C238.6,117.22 237.6,118.18 235.75,118.18L235.75,118.18ZM233.48,113.74L233.48,117.58L235.75,117.58C237.2,117.58 237.89,116.79 237.89,115.67C237.89,114.53 237.2,113.74 235.75,113.74L233.48,113.74ZM241.61,113.13L241.61,121.17L245.88,121.17L245.88,121.77L240.9,121.77L240.9,113.13L241.61,113.13ZM249.2,113.13L249.2,121.77L248.49,121.77L248.49,113.13L249.2,113.13ZM257.45,116.98L257.45,117.58L253.29,117.58L253.29,121.16L258.05,121.16L258.05,121.76L252.58,121.76L252.58,113.12L258.02,113.12L258.02,113.72L253.29,113.72L253.29,116.97L257.45,116.97L257.45,116.98ZM263.26,121.77L260.8,121.77L260.8,113.13L263.31,113.13C265.5,113.13 266.96,114.64 266.96,116.89L266.96,118C266.96,120.29 265.51,121.77 263.26,121.77L263.26,121.77ZM263.31,113.74L261.51,113.74L261.51,121.17L263.26,121.17C265.12,121.17 266.25,119.91 266.25,118.01L266.25,116.88C266.25,114.98 265.12,113.74 263.31,113.74L263.31,113.74ZM278.6,119.65C278.6,118.68 278.01,118.17 276.23,117.71C274.3,117.23 273.35,116.56 273.35,115.25C273.35,113.91 274.53,113.02 276.26,113.02C278.07,113.02 279.24,114.12 279.24,115.6L278.53,115.6C278.53,114.42 277.68,113.62 276.25,113.62C274.84,113.62 274.04,114.3 274.04,115.23C274.04,116.11 274.65,116.64 276.44,117.09C278.33,117.57 279.29,118.3 279.29,119.65C279.29,121.06 278.07,121.9 276.29,121.9C274.53,121.9 273.06,121.04 273.06,119.32L273.77,119.32C273.77,120.69 274.9,121.3 276.3,121.3C277.7,121.29 278.6,120.65 278.6,119.65L278.6,119.65ZM286.89,119.08L287.59,119.08C287.4,120.88 286.31,121.89 284.46,121.89C282.5,121.89 281.25,120.41 281.25,118.15L281.25,116.75C281.25,114.5 282.5,113.01 284.46,113.01C286.33,113.01 287.41,113.99 287.59,115.83L286.89,115.83C286.7,114.37 285.94,113.62 284.46,113.62C282.92,113.62 281.96,114.88 281.96,116.75L281.96,118.17C281.96,120.06 282.92,121.31 284.46,121.31C285.95,121.29 286.7,120.6 286.89,119.08ZM291.22,113.13L291.22,121.77L290.51,121.77L290.51,113.13L291.22,113.13ZM299.48,116.98L299.48,117.58L295.32,117.58L295.32,121.16L300.08,121.16L300.08,121.76L294.61,121.76L294.61,113.12L300.05,113.12L300.05,113.72L295.32,113.72L295.32,116.97L299.48,116.97L299.48,116.98ZM308.95,113.13L308.95,121.77L308.24,121.77L303.32,114.31L303.3,114.32L303.3,121.77L302.59,121.77L302.59,113.13L303.3,113.13L308.23,120.58L308.25,120.57L308.25,113.13L308.95,113.13ZM317.14,119.08L317.84,119.08C317.65,120.88 316.56,121.89 314.71,121.89C312.75,121.89 311.5,120.41 311.5,118.15L311.5,116.75C311.5,114.5 312.75,113.01 314.71,113.01C316.58,113.01 317.66,113.99 317.84,115.83L317.14,115.83C316.95,114.37 316.19,113.62 314.71,113.62C313.17,113.62 312.21,114.88 312.21,116.75L312.21,118.17C312.21,120.06 313.17,121.31 314.71,121.31C316.2,121.29 316.95,120.6 317.14,119.08ZM325.11,116.98L325.11,117.58L320.95,117.58L320.95,121.16L325.71,121.16L325.71,121.76L320.24,121.76L320.24,113.12L325.68,113.12L325.68,113.72L320.95,113.72L320.95,116.97L325.11,116.97L325.11,116.98ZM332.8,119.65C332.8,118.68 332.21,118.17 330.43,117.71C328.5,117.23 327.55,116.56 327.55,115.25C327.55,113.91 328.72,113.02 330.46,113.02C332.27,113.02 333.44,114.12 333.44,115.6L332.74,115.6C332.74,114.42 331.89,113.62 330.46,113.62C329.06,113.62 328.26,114.3 328.26,115.23C328.26,116.11 328.87,116.64 330.66,117.09C332.55,117.57 333.51,118.3 333.51,119.65C333.51,121.06 332.29,121.9 330.51,121.9C328.75,121.9 327.28,121.04 327.28,119.32L327.99,119.32C327.99,120.69 329.12,121.3 330.52,121.3C331.9,121.29 332.8,120.65 332.8,119.65Z" style="fill:rgb(227,192,78);fill-rule:nonzero;"/>
</svg>
